<?xml version="1.0" standalone="no"?>
<!DOCTYPE svg PUBLIC "-//W3C//DTD SVG 20010904//EN"
 "http://www.w3.org/TR/2001/REC-SVG-20010904/DTD/svg10.dtd">
<svg version="1.0" xmlns="http://www.w3.org/2000/svg"
 width="201.000000pt" height="201.000000pt" viewBox="0 0 201.000000 201.000000"
 preserveAspectRatio="xMidYMid meet">
<metadata>
Created by potrace 1.11, written by Peter Selinger 2001-2013
</metadata>
<g transform="translate(0.000000,201.000000) scale(0.100000,-0.100000)"
fill="#000000" stroke="none">
<path d="M957 1954 c-2 -3 -23 -5 -46 -6 -33 0 -39 -3 -30 -14 6 -7 10 -23 9
-36 -5 -58 -1 -68 28 -68 15 0 43 -11 62 -25 l33 -25 33 25 c38 29 121 36 130
11 3 -8 13 -12 22 -9 9 2 36 -3 59 -11 24 -8 45 -11 48 -6 3 5 37 8 75 7 66
-2 70 -4 81 -29 16 -39 18 -89 5 -110 -13 -21 12 -73 59 -122 51 -54 94 -110
95 -123 0 -7 4 -13 8 -13 5 0 16 -19 26 -42 31 -74 38 -86 56 -91 10 -3 23 0
29 6 6 6 30 11 53 12 24 0 51 5 60 11 15 8 16 13 5 34 -14 27 -17 35 -17 49 0
5 -6 16 -12 23 -7 7 -29 45 -48 83 -25 50 -62 97 -130 168 -52 53 -100 97
-105 97 -6 0 -15 8 -22 18 -23 38 -323 175 -341 157 -3 -3 -11 0 -18 5 -6 6
-51 13 -98 15 -47 2 -90 6 -95 9 -4 3 -11 3 -14 0z"/>
<path d="M670 1910 c-40 -3 -80 -14 -103 -28 -41 -24 -106 -29 -125 -10 -9 9
-13 7 -18 -8 -4 -10 -27 -37 -51 -60 -33 -31 -43 -48 -43 -71 0 -31 -37 -73
-64 -73 -14 0 -56 -53 -56 -70 0 -7 -14 -32 -32 -56 -24 -34 -29 -47 -20 -56
15 -15 16 -134 2 -143 -20 -12 -5 -60 27 -89 18 -16 42 -44 54 -62 11 -19 45
-50 75 -70 45 -30 60 -35 87 -30 32 6 39 7 80 4 29 -1 75 7 110 21 44 17 92
13 112 -9 12 -13 31 -20 55 -20 20 0 41 -5 48 -12 13 -13 16 -50 6 -61 -19
-18 -10 -70 15 -100 31 -36 72 -112 76 -142 15 -95 15 -94 -6 -108 -15 -11
-22 -30 -26 -70 -5 -47 -2 -60 16 -83 11 -14 21 -32 21 -40 0 -7 5 -14 11 -16
10 -3 13 -18 23 -112 2 -16 15 -44 30 -63 15 -18 24 -38 21 -43 -3 -6 -2 -10
3 -10 12 0 32 -45 32 -73 1 -52 14 -56 135 -38 l80 11 66 69 c41 44 70 84 77
108 7 23 26 51 46 68 27 22 33 33 26 46 -14 24 -20 73 -12 84 15 21 60 57 74
59 8 1 24 11 36 22 19 18 22 29 18 80 -2 32 -12 85 -21 118 -16 56 -16 60 2
93 10 19 63 78 119 131 56 53 109 111 118 127 9 17 25 44 36 60 31 49 26 65
-17 59 -21 -3 -49 -8 -63 -11 -49 -11 -65 -11 -88 0 -12 6 -21 16 -18 23 5 13
-66 84 -84 84 -6 0 -10 9 -10 20 0 12 -11 32 -24 47 -13 14 -26 41 -29 61 -4
19 -16 45 -28 58 -13 13 -20 24 -16 24 4 0 -4 20 -18 45 -22 43 -23 47 -8 73
10 18 14 38 10 54 -6 21 -14 26 -48 31 -23 3 -53 1 -66 -4 -17 -6 -41 -4 -78
6 -29 9 -57 15 -61 14 -22 -4 -34 2 -34 16 0 10 -10 15 -29 15 -32 0 -56 -22
-48 -44 8 -20 -27 -30 -53 -16 -12 7 -24 9 -27 7 -3 -3 -19 8 -35 24 -17 16
-41 29 -54 29 -26 0 -74 20 -74 30 0 4 3 10 8 14 4 4 7 23 7 41 l0 33 -55 -1
c-30 0 -84 -3 -120 -7z"/>
<path d="M108 1418 c-22 -34 -23 -58 -3 -58 19 0 27 20 23 56 l-3 28 -17 -26z"/>
<path d="M55 1287 c-14 -37 -16 -81 -13 -303 l3 -259 44 -98 c24 -54 48 -100
52 -103 4 -2 25 -2 47 2 29 4 43 14 56 35 9 16 16 31 16 35 -1 4 3 10 9 14 8
4 3 25 -14 65 -49 110 -67 214 -63 367 3 130 2 138 -19 158 -12 11 -27 20 -33
20 -6 0 -9 4 -5 9 3 5 1 12 -5 16 -5 3 -10 16 -10 29 0 20 -27 56 -42 56 -4 0
-14 -19 -23 -43z"/>
<path d="M1874 1194 c-20 -62 -43 -99 -97 -156 -35 -36 -39 -45 -38 -91 0 -29
-5 -70 -11 -92 -5 -22 -12 -51 -14 -65 -3 -14 -13 -43 -23 -65 -10 -22 -26
-58 -35 -80 -17 -39 -93 -147 -108 -153 -5 -2 -8 -8 -8 -12 0 -5 -11 -20 -24
-33 -18 -18 -22 -31 -19 -52 5 -22 -1 -33 -31 -61 -20 -18 -36 -42 -36 -52 0
-10 -8 -28 -18 -40 -10 -11 -27 -33 -38 -48 -10 -15 -27 -36 -37 -46 -31 -32
-13 -31 54 3 73 36 128 73 179 118 19 17 38 31 43 31 4 0 7 4 7 10 0 5 22 31
48 57 52 52 89 101 112 148 8 17 27 51 42 76 16 25 28 51 28 57 0 6 5 23 11
39 12 29 16 42 23 83 2 14 5 25 6 25 18 0 21 388 3 406 -10 10 -14 8 -19 -7z"/>
<path d="M287 509 c-16 -23 -31 -39 -33 -36 -9 9 -64 -14 -64 -26 0 -6 51 -61
113 -122 87 -85 131 -120 197 -156 92 -49 187 -86 235 -91 17 -2 32 -6 35 -10
3 -4 42 -9 85 -12 44 -2 85 -5 90 -6 6 -1 18 -2 27 -1 18 1 18 22 3 96 -3 17
-8 40 -11 53 -4 19 -11 22 -47 22 -23 0 -71 7 -107 16 -36 8 -77 17 -92 21
-16 3 -28 9 -28 14 0 5 -7 9 -15 9 -19 0 -117 51 -171 90 -22 16 -73 63 -112
104 -40 42 -73 76 -74 76 -2 -1 -16 -19 -31 -41z"/>
</g>
</svg>
